<svg width="905" height="450" viewBox="0 0 905 450" fill="none" xmlns="http://www.w3.org/2000/svg">
<path d="M683.49 71.6C684.05 70.36 684.87 69.38 686.09 68.7C687.42 67.96 688.66 67.07 690 66.34C696.44 62.82 703.18 60.3 710.67 60.33C716 60.35 720.73 62.13 725 65.15C725.43 64.77 725.35 64.38 725.4 64C726.17 57.43 728.68 51.61 733.03 46.61C734.48 44.94 736.4 44.72 737.91 45.98C739.46 47.28 739.52 49.07 738.08 50.88C737.72 51.33 737.33 51.75 736.96 52.19C731.16 59.26 730.33 69.95 734.87 77.86C735.46 78.89 735.81 78.9 736.66 78.2C739.42 75.94 742.36 73.93 745.49 72.23C762.51 62.98 780.8 58.53 800.08 58.21C817.83 57.91 832.36 64.68 843.53 78.6C850.45 87.22 855.61 96.91 860.69 106.64C867.47 119.64 874.25 132.62 882.95 144.49C887.2 150.28 892.01 155.64 896.02 161.61C901.01 169.05 903.61 177.35 903.79 186.23C903.97 195.5 899.25 202.47 892.08 207.88C884.29 213.76 875.29 217.06 866.05 219.82C864.09 220.41 861.99 220.57 860.19 221.68C853.91 222.84 847.63 224.01 841.35 225.17C841.18 224.76 840.85 224.91 840.55 224.93C837.82 225.16 835.1 225.5 832.36 225.58C814.93 226.06 797.76 224.2 780.96 219.4C766.16 215.17 752.4 208.86 740.59 198.78C728.25 188.25 720.12 175.12 716.48 159.27C715.25 153.91 714.43 148.5 713.86 143.03C712.93 134.13 712.98 125.26 714.46 116.43C715.43 110.65 717.12 105.09 719.59 99.57C718.96 99.64 718.53 99.68 718.11 99.73C710.5 100.76 703.56 99.3 697.54 94.28C694.08 91.39 691.38 87.89 688.96 84.13C687.08 81.22 685.95 77.92 684.15 74.98C683.91 73.86 683.7 72.73 683.49 71.6ZM882.35 206.29C885.82 204.38 889.02 202.09 891.73 199.15C896.18 194.32 897.88 188.66 896.88 182.22C895.74 174.92 893.24 168.1 888.44 162.42C874.2 145.52 863.21 126.59 853.32 106.93C849.63 99.6 845.54 92.5 840.7 85.84C830.5 71.78 816.87 64.48 799.4 64.87C781.46 65.27 764.36 69.26 748.64 78.05C730.15 88.38 721.27 104.75 720 125.57C719.31 136.86 720.45 148.03 723.18 158.96C727.14 174.79 736.21 187.27 749.31 196.87C761.34 205.68 774.95 210.98 789.33 214.45C804.51 218.11 819.93 219.54 835.53 218.75C841.08 218.47 846.6 217.82 851.36 216.61C862.49 214.15 872.86 211.51 882.35 206.29ZM692.51 72.76C691.68 73.22 691.18 73.71 691.66 74.7C694.41 80.42 697.59 85.8 702.76 89.75C706.88 92.9 711.6 93.38 716.53 93.05C717.23 93 717.91 92.79 718.61 92.7C722.06 92.28 724.88 90.96 726.75 87.8C727.65 86.29 729.69 85.26 730.08 83.72C730.47 82.17 728.67 80.66 727.94 79.07C723.86 70.15 715.25 65.79 706.07 67.5C700.84 68.39 696.63 70.46 692.51 72.76Z" fill="url(#paint0_linear_)" stroke="#D75198" stroke-miterlimit="10"/>
<path d="M14.5699 0.720001C16.7199 0.720001 18.9598 1.25999 21.2898 2.32999C23.6198 3.40999 25.4098 4.92999 26.6698 6.89999L94.9498 110.93L83.3898 110.39L153.01 6.89999C155.87 2.77999 159.55 0.720001 164.03 0.720001C167.61 0.720001 170.79 2.02 173.57 4.62C176.35 7.22 177.74 10.49 177.74 14.43V175.45C177.74 179.39 176.48 182.67 173.98 185.26C171.47 187.86 168.15 189.16 164.03 189.16C159.73 189.16 156.28 187.86 153.68 185.26C151.08 182.66 149.78 179.39 149.78 175.45V39.16L158.38 41.04L99.2399 131.09C97.9799 132.7 96.3698 134.09 94.3998 135.26C92.4298 136.43 90.3698 136.92 88.2198 136.74C86.2498 136.92 84.2298 136.43 82.1698 135.26C80.1098 134.1 78.4498 132.71 77.1998 131.09L20.2099 42.38L26.6599 31.63V175.45C26.6599 179.39 25.4498 182.67 23.0298 185.26C20.6098 187.86 17.4299 189.16 13.4899 189.16C9.72985 189.16 6.63985 187.86 4.21985 185.26C1.79985 182.66 0.589844 179.39 0.589844 175.45V14.43C0.589844 10.67 1.97984 7.44 4.75984 4.75C7.53984 2.06 10.8099 0.720001 14.5699 0.720001Z" fill="black"/>
<path d="M334.46 45.61C338.4 45.61 341.63 46.91 344.14 49.51C346.65 52.11 347.9 55.38 347.9 59.32V175.45C347.9 179.39 346.64 182.67 344.14 185.26C341.63 187.86 338.4 189.16 334.46 189.16C330.7 189.16 327.51 187.86 324.92 185.26C322.32 182.66 321.02 179.39 321.02 175.45V156.1L326.67 156.91C326.67 160.14 325.37 163.72 322.77 167.66C320.17 171.6 316.63 175.41 312.15 179.08C307.67 182.76 302.38 185.8 296.29 188.22C290.2 190.64 283.66 191.85 276.67 191.85C264.3 191.85 253.19 188.67 243.34 182.31C233.48 175.95 225.69 167.21 219.95 156.1C214.21 144.99 211.35 132.36 211.35 118.2C211.35 103.68 214.21 90.92 219.95 79.89C225.68 68.87 233.43 60.22 243.2 53.95C252.97 47.68 263.85 44.54 275.86 44.54C283.56 44.54 290.69 45.8 297.23 48.3C303.77 50.81 309.46 54.04 314.3 57.98C319.14 61.92 322.86 66.09 325.46 70.48C328.06 74.87 329.36 79.04 329.36 82.98L321.03 83.79V59.33C321.03 55.57 322.33 52.34 324.93 49.65C327.51 46.96 330.7 45.61 334.46 45.61ZM279.62 167.12C288.04 167.12 295.48 164.97 301.93 160.67C308.38 156.37 313.4 150.5 316.98 143.06C320.56 135.63 322.36 127.33 322.36 118.19C322.36 108.87 320.57 100.54 316.98 93.19C313.39 85.84 308.38 80.02 301.93 75.72C295.48 71.42 288.04 69.27 279.62 69.27C271.38 69.27 264.07 71.42 257.71 75.72C251.35 80.02 246.33 85.85 242.66 93.19C238.98 100.54 237.15 108.87 237.15 118.19C237.15 127.33 238.99 135.62 242.66 143.06C246.33 150.5 251.35 156.37 257.71 160.67C264.07 164.97 271.38 167.12 279.62 167.12Z" fill="black"/>
<path d="M458.38 44.54C471.1 44.54 480.96 47.19 487.95 52.47C494.94 57.76 499.82 64.84 502.6 73.71C505.38 82.58 506.77 92.48 506.77 103.41V175.45C506.77 179.39 505.47 182.67 502.87 185.26C500.27 187.86 497.09 189.16 493.33 189.16C489.39 189.16 486.16 187.86 483.65 185.26C481.14 182.66 479.89 179.39 479.89 175.45V103.68C479.89 97.23 478.99 91.45 477.2 86.34C475.41 81.23 472.32 77.11 467.93 73.97C463.54 70.84 457.4 69.27 449.52 69.27C442.17 69.27 435.72 70.84 430.17 73.97C424.61 77.11 420.27 81.23 417.13 86.34C413.99 91.45 412.42 97.23 412.42 103.68V175.45C412.42 179.39 411.12 182.67 408.52 185.26C405.92 187.86 402.74 189.16 398.98 189.16C395.04 189.16 391.81 187.86 389.3 185.26C386.79 182.66 385.54 179.39 385.54 175.45V61.47C385.54 57.53 386.79 54.26 389.3 51.66C391.81 49.06 395.03 47.76 398.98 47.76C402.74 47.76 405.92 49.06 408.52 51.66C411.12 54.26 412.42 57.53 412.42 61.47V76.52L407.58 79.21C408.83 75.27 411.03 71.28 414.17 67.25C417.3 63.22 421.11 59.45 425.59 55.96C430.07 52.47 435.09 49.69 440.64 47.63C446.19 45.57 452.1 44.54 458.38 44.54Z" fill="black"/>
<path d="M603 44.54C610.7 44.54 617.79 45.8 624.24 48.3C630.69 50.81 636.29 53.99 641.04 57.84C645.79 61.7 649.51 65.68 652.2 69.8C654.89 73.92 656.23 77.51 656.23 80.55L650.05 80.82V59.31C650.05 55.55 651.3 52.32 653.81 49.63C656.32 46.94 659.54 45.6 663.49 45.6C667.43 45.6 670.66 46.9 673.17 49.5C675.68 52.1 676.93 55.37 676.93 59.31V177.86C676.93 193.09 673.7 205.5 667.25 215.09C660.8 224.67 652.24 231.71 641.58 236.19C630.92 240.67 619.22 242.91 606.5 242.91C602.02 242.91 596.73 242.33 590.64 241.16C584.55 239.99 578.95 238.61 573.84 236.99C568.73 235.37 565.19 233.76 563.22 232.15C559.1 230 556.36 227.49 555.02 224.62C553.68 221.75 553.63 218.88 554.89 216.02C556.68 212.08 559.1 209.66 562.15 208.76C565.19 207.86 568.69 208.13 572.63 209.57C574.42 210.11 577.2 211.09 580.96 212.53C584.72 213.96 588.93 215.26 593.59 216.43C598.25 217.59 602.64 218.18 606.76 218.18C621.09 218.18 631.89 214.86 639.15 208.23C646.41 201.6 650.04 192.55 650.04 181.08V156.9L653 158.78C652.46 162.54 650.8 166.35 648.03 170.2C645.25 174.06 641.62 177.59 637.14 180.82C632.66 184.05 627.5 186.69 621.68 188.75C615.85 190.81 609.89 191.84 603.8 191.84C591.07 191.84 579.69 188.66 569.66 182.3C559.62 175.94 551.65 167.25 545.74 156.23C539.83 145.21 536.87 132.53 536.87 118.19C536.87 103.85 539.83 91.17 545.74 80.15C551.65 69.13 559.58 60.44 569.53 54.07C579.48 47.72 590.63 44.54 603 44.54ZM607.03 69.27C598.25 69.27 590.54 71.42 583.91 75.72C577.28 80.02 572.08 85.85 568.32 93.19C564.56 100.54 562.67 108.87 562.67 118.19C562.67 127.51 564.55 135.84 568.32 143.19C572.08 150.54 577.28 156.36 583.91 160.66C590.54 164.96 598.25 167.11 607.03 167.11C615.81 167.11 623.52 165.01 630.15 160.79C636.78 156.58 641.98 150.76 645.74 143.32C649.5 135.89 651.38 127.51 651.38 118.19C651.38 108.87 649.5 100.49 645.74 93.06C641.98 85.63 636.78 79.8 630.15 75.59C623.52 71.38 615.81 69.27 607.03 69.27Z" fill="black"/>
<path d="M160.02 445.98C155.7 445.98 152.01 444.62 148.94 441.89C145.87 439.16 144.34 435.87 144.34 432V220.93C144.34 217.07 145.65 213.83 148.26 211.21C150.87 208.6 154.11 207.29 157.98 207.29H252.09C264.82 207.29 276.3 210.19 286.53 215.99C296.76 221.79 304.88 229.75 310.91 239.86C316.93 249.98 319.95 261.63 319.95 274.81C319.95 284.36 318.13 293.28 314.49 301.58C310.85 309.88 305.85 317.04 299.49 323.06C293.12 329.09 285.85 333.69 277.67 336.87L270.17 331.41C277.9 333.23 284.83 336.47 290.97 341.13C297.11 345.79 302.11 351.7 305.97 358.86C309.83 366.02 311.88 374.37 312.11 383.92C312.56 392.33 313.13 399.04 313.82 404.04C314.5 409.04 315.52 412.96 316.89 415.8C318.25 418.64 320.18 420.86 322.69 422.45C325.87 424.5 327.98 427.22 329 430.63C330.02 434.04 329.39 437.34 327.12 440.52C325.76 442.57 323.82 443.99 321.32 444.78C318.82 445.58 316.32 445.86 313.82 445.63C311.32 445.41 309.16 444.72 307.34 443.58C303.7 441.53 300.18 438.52 296.77 434.54C293.36 430.57 290.52 424.82 288.25 417.32C285.98 409.82 284.84 399.59 284.84 386.63C284.84 379.36 283.7 373.33 281.43 368.56C279.16 363.79 276.09 359.92 272.22 356.97C268.35 354.02 264.04 351.97 259.26 350.83C254.49 349.7 249.6 349.13 244.6 349.13H168.56L172.65 342.99V431.99C172.65 435.86 171.51 439.15 169.24 441.88C166.95 444.61 163.88 445.98 160.02 445.98ZM168.54 324.59H252.08C258.67 324.14 264.87 321.86 270.66 317.77C276.46 313.68 281.23 307.94 284.98 300.55C288.73 293.17 290.61 284.81 290.61 275.49C290.61 263.44 286.8 253.44 279.19 245.48C271.57 237.53 261.97 233.55 250.38 233.55H169.91L172.64 227.07V330.73L168.54 324.59Z" fill="#D75198"/>
<path d="M535.78 357.32C535.78 375.05 531.86 390.85 524.02 404.72C516.18 418.59 505.61 429.5 492.31 437.45C479.01 445.41 464.06 449.38 447.47 449.38C430.87 449.38 415.87 445.41 402.46 437.45C389.04 429.49 378.42 418.58 370.58 404.72C362.74 390.86 358.82 375.05 358.82 357.32C358.82 339.59 362.74 323.79 370.58 309.92C378.42 296.06 389.05 285.15 402.46 277.19C415.87 269.24 430.87 265.26 447.47 265.26C464.06 265.26 479.01 269.24 492.31 277.19C505.61 285.15 516.18 296.06 524.02 309.92C531.86 323.79 535.78 339.59 535.78 357.32ZM508.5 357.32C508.5 344.14 505.83 332.54 500.49 322.54C495.15 312.54 487.87 304.7 478.67 299.01C469.46 293.33 459.06 290.49 447.47 290.49C435.88 290.49 425.48 293.33 416.27 299.01C407.06 304.69 399.73 312.54 394.28 322.54C388.82 332.54 386.1 344.14 386.1 357.32C386.1 370.28 388.83 381.76 394.28 391.76C399.74 401.77 407.07 409.66 416.27 415.46C425.48 421.26 435.88 424.15 447.47 424.15C459.06 424.15 469.46 421.25 478.67 415.46C487.88 409.66 495.15 401.77 500.49 391.76C505.83 381.76 508.5 370.28 508.5 357.32Z" fill="#D75198"/>
<path d="M566.81 418.02C564.76 415.07 563.85 411.94 564.08 408.64C564.3 405.35 566.24 402.45 569.88 399.94C572.15 398.35 574.82 397.67 577.89 397.89C580.96 398.12 583.74 399.6 586.24 402.32C592.6 409.82 599.88 415.79 608.06 420.22C616.24 424.65 626.24 426.87 638.07 426.87C643.53 426.65 648.98 425.74 654.44 424.14C659.9 422.55 664.5 419.77 668.25 415.79C672 411.82 673.88 406.53 673.88 399.93C673.88 393.57 671.95 388.51 668.08 384.76C664.21 381.01 659.21 377.94 653.08 375.55C646.95 373.16 640.23 371.06 632.96 369.24C625.46 367.19 618.07 364.87 610.8 362.25C603.52 359.64 596.99 356.34 591.19 352.36C585.39 348.39 580.73 343.38 577.21 337.36C573.68 331.34 571.92 324.01 571.92 315.37C571.92 305.14 574.7 296.28 580.27 288.77C585.84 281.27 593.34 275.47 602.77 271.38C612.2 267.29 622.49 265.24 633.63 265.24C639.99 265.24 646.64 265.98 653.58 267.46C660.51 268.94 667.27 271.44 673.87 274.96C680.46 278.49 686.26 283.31 691.26 289.45C693.31 291.73 694.44 294.57 694.67 297.97C694.89 301.38 693.42 304.45 690.24 307.18C687.74 309 684.95 309.8 681.89 309.57C678.82 309.35 676.26 308.21 674.22 306.16C669.45 300.48 663.48 296.1 656.32 293.03C649.16 289.96 641.26 288.43 632.62 288.43C627.16 288.43 621.82 289.23 616.59 290.82C611.36 292.41 606.98 295.08 603.46 298.83C599.93 302.58 598.17 307.75 598.17 314.35C598.39 320.49 600.44 325.49 604.31 329.35C608.17 333.22 613.4 336.34 620 338.73C626.59 341.12 633.86 343.45 641.82 345.72C649.09 347.54 656.08 349.64 662.79 352.03C669.49 354.42 675.58 357.54 681.03 361.41C686.49 365.28 690.8 370.22 693.99 376.24C697.17 382.27 698.76 389.83 698.76 398.92C698.76 409.38 695.8 418.41 689.89 426.03C683.98 433.65 676.19 439.45 666.53 443.42C656.86 447.39 646.47 449.39 635.33 449.39C622.83 449.39 610.49 447 598.33 442.23C586.19 437.45 575.68 429.39 566.81 418.02Z" fill="#D75198"/>
<path d="M886.31 267.98C890.17 267.98 893.41 269.29 896.03 271.9C898.64 274.52 899.949 277.76 899.949 281.62V432C899.949 435.87 898.64 439.16 896.03 441.89C893.41 444.62 890.17 445.98 886.31 445.98C882.22 445.98 878.92 444.62 876.42 441.89C873.92 439.16 872.669 435.87 872.669 432V399.6L879.15 398.92C879.15 403.92 877.439 409.38 874.039 415.29C870.629 421.2 865.97 426.71 860.06 431.83C854.15 436.94 847.16 441.15 839.09 444.45C831.02 447.74 822.32 449.39 813.01 449.39C797.55 449.39 783.679 445.36 771.409 437.28C759.129 429.21 749.42 418.24 742.26 404.38C735.1 390.52 731.52 374.71 731.52 356.98C731.52 339.03 735.1 323.17 742.26 309.41C749.42 295.66 759.139 284.86 771.409 277.02C783.679 269.18 797.33 265.26 812.33 265.26C822.1 265.26 831.199 266.85 839.609 270.03C848.019 273.22 855.349 277.53 861.599 282.99C867.849 288.45 872.73 294.47 876.26 301.06C879.78 307.66 881.55 314.25 881.55 320.84L872.68 318.79V281.62C872.68 277.76 873.93 274.52 876.43 271.9C878.92 269.29 882.22 267.98 886.31 267.98ZM816.07 424.15C827.43 424.15 837.49 421.2 846.25 415.28C855 409.37 861.82 401.36 866.71 391.24C871.6 381.13 874.039 369.7 874.039 356.97C874.039 344.47 871.59 333.16 866.71 323.04C861.82 312.93 855 304.97 846.25 299.17C837.5 293.37 827.44 290.47 816.07 290.47C804.93 290.47 794.979 293.31 786.229 298.99C777.479 304.67 770.599 312.52 765.599 322.52C760.599 332.52 758.099 344 758.099 356.96C758.099 369.69 760.54 381.12 765.43 391.23C770.32 401.35 777.14 409.36 785.89 415.27C794.64 421.2 804.7 424.15 816.07 424.15Z" fill="#D75198"/>
<path d="M160.02 445.98C155.7 445.98 152.01 444.62 148.94 441.89C145.87 439.16 144.34 435.87 144.34 432V220.93C144.34 217.07 145.65 213.83 148.26 211.21C150.87 208.6 154.11 207.29 157.98 207.29H252.09C264.82 207.29 276.3 210.19 286.53 215.99C296.76 221.79 304.88 229.75 310.91 239.86C316.93 249.98 319.95 261.63 319.95 274.81C319.95 284.36 318.13 293.28 314.49 301.58C310.85 309.88 305.85 317.04 299.49 323.06C293.12 329.09 285.85 333.69 277.67 336.87L270.17 331.41C277.9 333.23 284.83 336.47 290.97 341.13C297.11 345.79 302.11 351.7 305.97 358.86C309.83 366.02 311.88 374.37 312.11 383.92C312.56 392.33 313.13 399.04 313.82 404.04C314.5 409.04 315.52 412.96 316.89 415.8C318.25 418.64 320.18 420.86 322.69 422.45C325.87 424.5 327.98 427.22 329 430.63C330.02 434.04 329.39 437.34 327.12 440.52C325.76 442.57 323.82 443.99 321.32 444.78C318.82 445.58 316.32 445.86 313.82 445.63C311.32 445.41 309.16 444.72 307.34 443.58C303.7 441.53 300.18 438.52 296.77 434.54C293.36 430.57 290.52 424.82 288.25 417.32C285.98 409.82 284.84 399.59 284.84 386.63C284.84 379.36 283.7 373.33 281.43 368.56C279.16 363.79 276.09 359.92 272.22 356.97C268.35 354.02 264.04 351.97 259.26 350.83C254.49 349.7 249.6 349.13 244.6 349.13H168.56L172.65 342.99V431.99C172.65 435.86 171.51 439.15 169.24 441.88C166.95 444.61 163.88 445.98 160.02 445.98ZM168.54 324.59H252.08C258.67 324.14 264.87 321.86 270.66 317.77C276.46 313.68 281.23 307.94 284.98 300.55C288.73 293.17 290.61 284.81 290.61 275.49C290.61 263.44 286.8 253.44 279.19 245.48C271.57 237.53 261.97 233.55 250.38 233.55H169.91L172.64 227.07V330.73L168.54 324.59Z" fill="url(#paint1_linear_)"/>
<path d="M535.78 357.32C535.78 375.05 531.86 390.85 524.02 404.72C516.18 418.59 505.61 429.5 492.31 437.45C479.01 445.41 464.06 449.38 447.47 449.38C430.87 449.38 415.87 445.41 402.46 437.45C389.04 429.49 378.42 418.58 370.58 404.72C362.74 390.86 358.82 375.05 358.82 357.32C358.82 339.59 362.74 323.79 370.58 309.92C378.42 296.06 389.05 285.15 402.46 277.19C415.87 269.24 430.87 265.26 447.47 265.26C464.06 265.26 479.01 269.24 492.31 277.19C505.61 285.15 516.18 296.06 524.02 309.92C531.86 323.79 535.78 339.59 535.78 357.32ZM508.5 357.32C508.5 344.14 505.83 332.54 500.49 322.54C495.15 312.54 487.87 304.7 478.67 299.01C469.46 293.33 459.06 290.49 447.47 290.49C435.88 290.49 425.48 293.33 416.27 299.01C407.06 304.69 399.73 312.54 394.28 322.54C388.82 332.54 386.1 344.14 386.1 357.32C386.1 370.28 388.83 381.76 394.28 391.76C399.74 401.77 407.07 409.66 416.27 415.46C425.48 421.26 435.88 424.15 447.47 424.15C459.06 424.15 469.46 421.25 478.67 415.46C487.88 409.66 495.15 401.77 500.49 391.76C505.83 381.76 508.5 370.28 508.5 357.32Z" fill="url(#paint2_linear_)"/>
<path d="M566.81 418.02C564.76 415.07 563.85 411.94 564.08 408.64C564.3 405.35 566.24 402.45 569.88 399.94C572.15 398.35 574.82 397.67 577.89 397.89C580.96 398.12 583.74 399.6 586.24 402.32C592.6 409.82 599.88 415.79 608.06 420.22C616.24 424.65 626.24 426.87 638.07 426.87C643.53 426.65 648.98 425.74 654.44 424.14C659.9 422.55 664.5 419.77 668.25 415.79C672 411.82 673.88 406.53 673.88 399.93C673.88 393.57 671.95 388.51 668.08 384.76C664.21 381.01 659.21 377.94 653.08 375.55C646.95 373.16 640.23 371.06 632.96 369.24C625.46 367.19 618.07 364.87 610.8 362.25C603.52 359.64 596.99 356.34 591.19 352.36C585.39 348.39 580.73 343.38 577.21 337.36C573.68 331.34 571.92 324.01 571.92 315.37C571.92 305.14 574.7 296.28 580.27 288.77C585.84 281.27 593.34 275.47 602.77 271.38C612.2 267.29 622.49 265.24 633.63 265.24C639.99 265.24 646.64 265.98 653.58 267.46C660.51 268.94 667.27 271.44 673.87 274.96C680.46 278.49 686.26 283.31 691.26 289.45C693.31 291.73 694.44 294.57 694.67 297.97C694.89 301.38 693.42 304.45 690.24 307.18C687.74 309 684.95 309.8 681.89 309.57C678.82 309.35 676.26 308.21 674.22 306.16C669.45 300.48 663.48 296.1 656.32 293.03C649.16 289.96 641.26 288.43 632.62 288.43C627.16 288.43 621.82 289.23 616.59 290.82C611.36 292.41 606.98 295.08 603.46 298.83C599.93 302.58 598.17 307.75 598.17 314.35C598.39 320.49 600.44 325.49 604.31 329.35C608.17 333.22 613.4 336.34 620 338.73C626.59 341.12 633.86 343.45 641.82 345.72C649.09 347.54 656.08 349.64 662.79 352.03C669.49 354.42 675.58 357.54 681.03 361.41C686.49 365.28 690.8 370.22 693.99 376.24C697.17 382.27 698.76 389.83 698.76 398.92C698.76 409.38 695.8 418.41 689.89 426.03C683.98 433.65 676.19 439.45 666.53 443.42C656.86 447.39 646.47 449.39 635.33 449.39C622.83 449.39 610.49 447 598.33 442.23C586.19 437.45 575.68 429.39 566.81 418.02Z" fill="url(#paint3_linear_)"/>
<path d="M886.31 267.98C890.17 267.98 893.41 269.29 896.03 271.9C898.64 274.52 899.949 277.76 899.949 281.62V432C899.949 435.87 898.64 439.16 896.03 441.89C893.41 444.62 890.17 445.98 886.31 445.98C882.22 445.98 878.92 444.62 876.42 441.89C873.92 439.16 872.669 435.87 872.669 432V399.6L879.15 398.92C879.15 403.92 877.439 409.38 874.039 415.29C870.629 421.2 865.97 426.71 860.06 431.83C854.15 436.94 847.16 441.15 839.09 444.45C831.02 447.74 822.32 449.39 813.01 449.39C797.55 449.39 783.679 445.36 771.409 437.28C759.129 429.21 749.42 418.24 742.26 404.38C735.1 390.52 731.52 374.71 731.52 356.98C731.52 339.03 735.1 323.17 742.26 309.41C749.42 295.66 759.139 284.86 771.409 277.02C783.679 269.18 797.33 265.26 812.33 265.26C822.1 265.26 831.199 266.85 839.609 270.03C848.019 273.22 855.349 277.53 861.599 282.99C867.849 288.45 872.73 294.47 876.26 301.06C879.78 307.66 881.55 314.25 881.55 320.84L872.68 318.79V281.62C872.68 277.76 873.93 274.52 876.43 271.9C878.92 269.29 882.22 267.98 886.31 267.98ZM816.07 424.15C827.43 424.15 837.49 421.2 846.25 415.28C855 409.37 861.82 401.36 866.71 391.24C871.6 381.13 874.039 369.7 874.039 356.97C874.039 344.47 871.59 333.16 866.71 323.04C861.82 312.93 855 304.97 846.25 299.17C837.5 293.37 827.44 290.47 816.07 290.47C804.93 290.47 794.979 293.31 786.229 298.99C777.479 304.67 770.599 312.52 765.599 322.52C760.599 332.52 758.099 344 758.099 356.96C758.099 369.69 760.54 381.12 765.43 391.23C770.32 401.35 777.14 409.36 785.89 415.27C794.64 421.2 804.7 424.15 816.07 424.15Z" fill="url(#paint4_linear_)"/>
<defs>
<linearGradient id="paint0_linear_" x1="903.781" y1="135.421" x2="683.489" y2="135.421" gradientUnits="userSpaceOnUse">
<stop offset="0.043" stop-color="#F8EA3D"/>
<stop offset="0.8996" stop-color="#C64693"/>
</linearGradient>
<linearGradient id="paint1_linear_" x1="144.332" y1="328.337" x2="899.949" y2="328.337" gradientUnits="userSpaceOnUse">
<stop offset="0.3545" stop-color="#C64693"/>
<stop offset="0.4307" stop-color="#C74B94"/>
<stop offset="0.5211" stop-color="#CA5B96"/>
<stop offset="0.6187" stop-color="#CF7198"/>
<stop offset="0.7215" stop-color="#D68D97"/>
<stop offset="0.8284" stop-color="#E0AE8C"/>
<stop offset="0.937" stop-color="#EDD06D"/>
<stop offset="1" stop-color="#F8EA3D"/>
</linearGradient>
<linearGradient id="paint2_linear_" x1="144.333" y1="328.337" x2="899.949" y2="328.337" gradientUnits="userSpaceOnUse">
<stop offset="0.3545" stop-color="#C64693"/>
<stop offset="0.4307" stop-color="#C74B94"/>
<stop offset="0.5211" stop-color="#CA5B96"/>
<stop offset="0.6187" stop-color="#CF7198"/>
<stop offset="0.7215" stop-color="#D68D97"/>
<stop offset="0.8284" stop-color="#E0AE8C"/>
<stop offset="0.937" stop-color="#EDD06D"/>
<stop offset="1" stop-color="#F8EA3D"/>
</linearGradient>
<linearGradient id="paint3_linear_" x1="144.332" y1="328.337" x2="899.949" y2="328.337" gradientUnits="userSpaceOnUse">
<stop offset="0.3545" stop-color="#C64693"/>
<stop offset="0.4307" stop-color="#C74B94"/>
<stop offset="0.5211" stop-color="#CA5B96"/>
<stop offset="0.6187" stop-color="#CF7198"/>
<stop offset="0.7215" stop-color="#D68D97"/>
<stop offset="0.8284" stop-color="#E0AE8C"/>
<stop offset="0.937" stop-color="#EDD06D"/>
<stop offset="1" stop-color="#F8EA3D"/>
</linearGradient>
<linearGradient id="paint4_linear_" x1="144.332" y1="328.337" x2="899.949" y2="328.337" gradientUnits="userSpaceOnUse">
<stop offset="0.3545" stop-color="#C64693"/>
<stop offset="0.4307" stop-color="#C74B94"/>
<stop offset="0.5211" stop-color="#CA5B96"/>
<stop offset="0.6187" stop-color="#CF7198"/>
<stop offset="0.7215" stop-color="#D68D97"/>
<stop offset="0.8284" stop-color="#E0AE8C"/>
<stop offset="0.937" stop-color="#EDD06D"/>
<stop offset="1" stop-color="#F8EA3D"/>
</linearGradient>
</defs>
</svg>
